<?xml version="1.0" encoding="UTF-8"?>
<!DOCTYPE svg PUBLIC "-//W3C//DTD SVG 1.1//EN" "http://www.w3.org/Graphics/SVG/1.1/DTD/svg11.dtd">
<!-- Creator: CorelDRAW 2017 -->
<svg xmlns="http://www.w3.org/2000/svg" xml:space="preserve" width="107px" height="145px" version="1.1" style="shape-rendering:geometricPrecision; text-rendering:geometricPrecision; image-rendering:optimizeQuality; fill-rule:evenodd; clip-rule:evenodd"
viewBox="0 0 8.089 10.947"
 xmlns:xlink="http://www.w3.org/1999/xlink">
 <defs>
  <style type="text/css">
   <![CDATA[
    .fil0 {fill:url(#id0)}
   ]]>
  </style>
  <linearGradient id="id0" gradientUnits="userSpaceOnUse" x1="3.587" y1="8.474" x2="3.418" y2="-2.677">
   <stop offset="0" style="stop-opacity:1; stop-color:#33CCCC"/>
   <stop offset="1" style="stop-opacity:1; stop-color:#7DE7FF"/>
  </linearGradient>
 </defs>
 <g id="Layer_x0020_1">
  <metadata id="CorelCorpID_0Corel-Layer"/>
  <path class="fil0" d="M2.55 7.478l-0.01 -3.804c-0.001,-0.561 -0.005,-1.144 0.782,-1.161 0.832,-0.018 0.871,0.618 0.872,1.215 0.001,0.537 0.002,1.075 0.004,1.613 0.158,-0.358 0.933,-0.459 1.136,0.161 0.181,-0.655 0.973,-0.672 1.143,-0.001 0.557,-0.967 1.606,-0.347 1.572,0.204 -0.001,0.004 0.036,2.193 0.022,3.566 -0.004,0.38 0.145,1.404 -0.356,1.588 -0.323,0.119 -1.031,0.083 -1.486,0.081 -1.078,-0.003 -3.118,-0.007 -3.118,-0.007l-2.45 -2.73c-0.782,-0.871 0.133,-2.256 0.942,-1.564 0.097,0.084 0.947,0.839 0.947,0.839zm0.265 0.804l0 -5.012c0,0 0.05,-0.418 0.502,-0.428 0.453,-0.01 0.502,0.453 0.502,0.453l0 3.748 0.442 -1.358c0,0 0.109,-0.265 0.384,-0.275 0.512,-0.019 0.568,0.467 0.689,0.836 0.092,-0.332 0.12,-0.856 0.56,-0.856 0.497,0 0.486,0.471 0.583,0.854 0.159,-0.319 0.31,-0.9 0.775,-0.854 0.197,0.02 0.325,0.148 0.374,0.315 0.001,0.004 0.036,2.193 0.022,3.566 -0.007,0.688 0.018,1.02 -0.126,1.18 -0.156,0.172 -0.51,0.142 -1.318,0.14 -1.078,-0.003 -2.867,0.013 -2.867,0.013l-2.479 -2.735c0,0 -0.226,-0.354 -0.04,-0.728 0.187,-0.374 0.62,-0.207 0.728,-0.138 0.109,0.069 1.269,1.279 1.269,1.279zm-2.815 -4.861c0,1.455 0.909,2.698 2.191,3.192l0 -0.483c-1.029,-0.468 -1.745,-1.505 -1.745,-2.709 0,-1.643 1.332,-2.975 2.975,-2.975 1.642,0 2.974,1.332 2.974,2.975 0,0.582 -0.167,1.125 -0.457,1.584 0.147,0.006 0.291,0.074 0.398,0.205 0.32,-0.52 0.505,-1.133 0.505,-1.789 0,-1.89 -1.531,-3.421 -3.42,-3.421 -1.89,0 -3.421,1.531 -3.421,3.421zm3.421 -1.934c-1.068,0 -1.934,0.866 -1.934,1.934 0,0.6 0.274,1.137 0.704,1.491l0 -0.655c-0.163,-0.238 -0.258,-0.526 -0.258,-0.836 0,-0.822 0.666,-1.488 1.488,-1.488 0.821,0 1.487,0.666 1.487,1.488 0,0.379 -0.142,0.725 -0.376,0.988l0 0.594c0.497,-0.35 0.822,-0.928 0.822,-1.582 0,-1.068 -0.866,-1.934 -1.933,-1.934z"/>
 </g>
</svg>
