<?xml version="1.0" encoding="UTF-8"?>
<!DOCTYPE svg PUBLIC "-//W3C//DTD SVG 1.1//EN" "http://www.w3.org/Graphics/SVG/1.1/DTD/svg11.dtd">
<!-- Creator: CorelDRAW 2017 -->
<svg xmlns="http://www.w3.org/2000/svg" xml:space="preserve" width="139px" height="148px" version="1.1" style="shape-rendering:geometricPrecision; text-rendering:geometricPrecision; image-rendering:optimizeQuality; fill-rule:evenodd; clip-rule:evenodd"
viewBox="0 0 72.571 77.292"
 xmlns:xlink="http://www.w3.org/1999/xlink">
 <defs>
  <style type="text/css">
   <![CDATA[
    .fil0 {fill:url(#id0)}
   ]]>
  </style>
  <linearGradient id="id0" gradientUnits="userSpaceOnUse" x1="35.23" y1="57.573" x2="36.775" y2="0.703">
   <stop offset="0" style="stop-opacity:1; stop-color:#33CCCC"/>
   <stop offset="1" style="stop-opacity:1; stop-color:#7DE7FF"/>
  </linearGradient>
 </defs>
 <g id="Layer_x0020_1">
  <metadata id="CorelCorpID_0Corel-Layer"/>
  <path class="fil0" d="M19.12 71.279c-2.998,0.371 -6.66,1.516 -6.66,1.516l0 1.874c6.23,-2.623 21.804,0.204 27.868,0.477 6.064,0.272 6.882,-0.545 6.882,-0.545 0,0 21.298,-12.657 23.508,-14.378 2.565,-1.997 1.99,-4.497 1.098,-5.641 -1.109,-1.422 -3.617,-2.276 -6.206,-0.504 -2.491,1.704 -14.576,9.921 -17.094,10.584 -1.501,0.394 -3.009,0.331 -3.009,0.331 0,0 -12.163,0.154 -14.207,0.222 -2.045,0.068 -1.754,-1.585 -0.839,-1.933 2.721,-0.033 14.527,0.157 16.877,-0.222 1.837,-0.297 3.069,-1.092 3.172,-3.431 0.109,-2.475 -2.395,-3.801 -3.828,-3.749 -2.335,0.084 -10.715,-0.086 -14.258,-0.086 -3.543,0 -5.792,-1.976 -8.79,-2.521 -2.998,-0.545 -8.244,0.341 -11.174,3.135l0 1.294c3.202,-2.316 7.767,-3.475 9.879,-2.793 2.113,0.681 5.371,2.381 7.666,2.538 2.295,0.157 12.675,0.179 15.246,0.17 2.308,-0.008 3.249,0.834 3.301,1.96 0.045,0.969 -0.7,1.924 -2.279,1.924l-16.438 0.221c-1.298,0.602 -1.793,1.769 -1.729,2.828 0.072,1.166 0.823,2.204 1.933,2.215 2.113,0 16.149,-0.137 16.149,-0.137 0,0 1.348,0.123 2.995,-0.32 4.095,-1.1 13.14,-8.201 17.106,-10.658 0.967,-0.599 2.868,-1.038 3.646,-0.039 0.661,0.848 0.51,2.643 -0.759,3.454 -1.499,0.954 -20.774,12.895 -23.158,13.645 -2.385,0.749 -7.513,0.715 -11.396,-0.103 -3.884,-0.817 -12.394,-1.713 -15.502,-1.328zm-6.66 1.516l0 -15.093 0 -1.294 0 -0.682c0,-1.023 -0.836,-1.859 -1.859,-1.859l-8.742 0c-1.022,0 -1.859,0.836 -1.859,1.859l0 19.706c0,1.023 0.837,1.86 1.859,1.86l8.742 0c1.023,0 1.859,-0.837 1.859,-1.86l0 -0.763 0 -1.874zm-1.846 -15.694l0 16.956c0,0.72 -0.589,1.308 -1.309,1.308l-6.15 0c-0.72,0 -1.308,-0.588 -1.308,-1.308l0 -16.956c0,-0.719 0.588,-1.308 1.308,-1.308l6.15 0c0.72,0 1.309,0.589 1.309,1.308zm-0.781 13.548c0,-1.524 -1.234,-2.76 -2.756,-2.76 -1.523,0 -2.757,1.236 -2.757,2.76 0,1.524 1.234,2.759 2.757,2.759 1.522,0 2.756,-1.235 2.756,-2.759zm50.8 -18.364l-8.687 5.417c0.579,1.67 0.204,3.458 0.204,3.458l13.339 -8.227c0.159,-3.182 -3.532,-1.479 -4.856,-0.648zm-9.335 4.259c2.862,-1.567 5.571,-3.611 8.433,-5.179 0.522,-2.375 -2.401,-2.254 -3.935,-1.396 0,0 -4.225,2.248 -6.886,4.26 0.68,0.309 2.048,1.14 2.388,2.315zm-13.921 -7.893c-0.448,0 -5.558,-1.976 -11.69,-5.996 -6.133,-4.021 -8.45,-11.993 -8.45,-11.993l-0.034 -22.281c4.191,-0.273 18.364,-5.383 20.174,-8.381 1.811,2.998 15.984,8.108 20.175,8.381l-0.034 22.281c0,0 -2.317,7.972 -8.45,11.993 -6.132,4.02 -11.242,5.996 -11.691,5.996zm16.178 -23.576l-16.353 0 0 17.332c0,0 6.382,-1.009 10.516,-5.15 4.134,-4.142 5.837,-12.182 5.837,-12.182zm-16.138 -18.722c-4.167,3.8 -16.296,6.048 -16.296,6.048l0 12.538 16.081 0 0.215 -18.586z"/>
 </g>
</svg>
