<?xml version="1.0" encoding="UTF-8"?>
<!DOCTYPE svg PUBLIC "-//W3C//DTD SVG 1.1//EN" "http://www.w3.org/Graphics/SVG/1.1/DTD/svg11.dtd">
<!-- Creator: CorelDRAW 2017 -->
<svg xmlns="http://www.w3.org/2000/svg" xml:space="preserve" width="137px" height="147px" version="1.1" style="shape-rendering:geometricPrecision; text-rendering:geometricPrecision; image-rendering:optimizeQuality; fill-rule:evenodd; clip-rule:evenodd"
viewBox="0 0 20.527 22.022"
 xmlns:xlink="http://www.w3.org/1999/xlink">
 <defs>
  <style type="text/css">
   <![CDATA[
    .fil0 {fill:url(#id0)}
   ]]>
  </style>
  <linearGradient id="id0" gradientUnits="userSpaceOnUse" x1="8.849" y1="15.179" x2="10.962" y2="-0.011">
   <stop offset="0" style="stop-opacity:1; stop-color:#33CCCC"/>
   <stop offset="1" style="stop-opacity:1; stop-color:#7DE7FF"/>
  </linearGradient>
 </defs>
 <g id="Layer_x0020_1">
  <metadata id="CorelCorpID_0Corel-Layer"/>
  <path class="fil0" d="M9.144 4.333c1.085,-0.51 2.484,-2.715 2.776,-3.785 0.535,-0.972 1.731,-0.593 1.41,0.681 -0.179,0.709 -0.662,1.565 -1.277,2.365l2.259 6.097c0,0 -2.534,8.944 -2.947,10.824 -0.413,1.88 -1.412,1.469 -1.412,1.469l-9.302 -2.551c0,0 -1.07,-0.155 -0.467,-1.983 0.603,-1.828 3.073,-11.202 3.073,-11.202l5.192 -4.161c0,0 0.83,-0.559 1.821,0.005l-5.924 4.798 -2.798 10.112c0,0 -0.487,1.184 0.35,1.439 2.681,0.82 4.733,1.439 7.487,2.054 0.858,0.192 1.035,-1.059 1.035,-1.059l2.623 -9.75 -1.901 -5.059c-0.227,0.224 -0.453,0.426 -0.678,0.596 0.005,0.035 0.007,0.077 0.007,0.119 0,0.569 -0.492,1.03 -1.098,1.03 -0.607,0 -1.109,-0.461 -1.109,-1.03 0,-0.489 0.37,-0.899 0.88,-1.009zm4.491 11.493c0.008,0.009 0.016,0.018 0.024,0.027 0.171,0.181 0.41,0.311 0.718,0.391 0.207,0.053 0.427,0.074 0.658,0.065l-0.324 -2.264 -0.004 0c-0.229,-0.017 -0.433,-0.037 -0.611,-0.059l0.207 -0.827c0.089,0.01 0.184,0.018 0.285,0.026l-0.106 -0.74 0.498 -1.989c0.188,0.008 0.368,0.032 0.538,0.074 0.383,0.092 0.695,0.269 0.936,0.532 0.241,0.262 0.399,0.578 0.474,0.946l-0.794 0.194c-0.108,-0.392 -0.304,-0.67 -0.586,-0.833 -0.197,-0.115 -0.445,-0.169 -0.742,-0.165l0.289 2.015c0.533,0.04 0.913,0.091 1.141,0.152 0.395,0.109 0.702,0.278 0.92,0.511 0.218,0.23 0.354,0.515 0.409,0.854 0.055,0.337 0.011,0.668 -0.133,0.997 -0.144,0.329 -0.382,0.606 -0.716,0.83 -0.31,0.208 -0.67,0.351 -1.081,0.43l0.129 0.901 -0.493 0.071 -0.129 -0.905c-0.406,0.035 -0.767,0.013 -1.081,-0.065 -0.241,-0.06 -0.457,-0.153 -0.65,-0.279l0.224 -0.89zm1.893 0.419c0.256,-0.054 0.48,-0.139 0.673,-0.253 0.229,-0.136 0.388,-0.296 0.48,-0.482 0.092,-0.186 0.123,-0.377 0.091,-0.572 -0.032,-0.197 -0.118,-0.36 -0.257,-0.49 -0.139,-0.129 -0.349,-0.221 -0.631,-0.28 -0.123,-0.025 -0.345,-0.052 -0.665,-0.081l0.309 2.158zm-11.188 -2.177l0.868 0.124c-0.041,0.353 -0.013,0.657 0.082,0.913 0.097,0.254 0.284,0.486 0.562,0.696 0.188,0.141 0.401,0.255 0.638,0.343l0.623 -2.427 -0.004 -0.002c-0.593,-0.299 -0.999,-0.544 -1.219,-0.737 -0.286,-0.249 -0.477,-0.519 -0.577,-0.809 -0.101,-0.291 -0.114,-0.595 -0.04,-0.909 0.082,-0.347 0.256,-0.647 0.523,-0.9 0.266,-0.254 0.605,-0.415 1.019,-0.482 0.401,-0.066 0.825,-0.048 1.271,0.052l0.275 -1.072 0.527 0.136 -0.279 1.088c0.301,0.109 0.567,0.248 0.798,0.418 0.348,0.253 0.589,0.563 0.723,0.931 0.134,0.366 0.161,0.752 0.082,1.156l-0.885 -0.137c0.056,-0.442 -0.025,-0.806 -0.242,-1.089 -0.152,-0.199 -0.379,-0.358 -0.682,-0.478l-0.554 2.159c0.522,0.265 0.886,0.476 1.091,0.634 0.353,0.276 0.593,0.576 0.716,0.902 0.124,0.325 0.142,0.67 0.055,1.036 -0.085,0.365 -0.269,0.681 -0.553,0.954 -0.284,0.272 -0.641,0.452 -1.073,0.538 -0.401,0.081 -0.825,0.075 -1.275,-0.019l-0.248 0.967 -0.527 -0.136 0.249 -0.97c-0.426,-0.135 -0.781,-0.308 -1.066,-0.52 -0.377,-0.278 -0.639,-0.626 -0.791,-1.044 -0.154,-0.418 -0.182,-0.856 -0.087,-1.316zm2.676 2.218c0.283,0.052 0.545,0.061 0.787,0.027 0.289,-0.042 0.518,-0.137 0.689,-0.287 0.172,-0.149 0.283,-0.33 0.332,-0.54 0.05,-0.213 0.032,-0.414 -0.054,-0.604 -0.087,-0.188 -0.261,-0.37 -0.521,-0.548 -0.114,-0.077 -0.327,-0.198 -0.639,-0.362l-0.594 2.314zm0.865 -5.557c-0.505,-0.107 -0.898,-0.094 -1.178,0.04 -0.298,0.141 -0.48,0.354 -0.547,0.637 -0.058,0.245 -0.016,0.468 0.123,0.669 0.126,0.181 0.482,0.422 1.071,0.72l0.531 -2.066zm4.432 10.363l7.588 -1.525c0,0 0.906,-0.051 0.537,-1.625 -0.369,-1.573 -1.741,-9.597 -1.741,-9.597l-4.035 -3.865c0,0 -0.652,-0.529 -1.524,-0.131l4.601 4.452 1.592 8.666c0,0 0.32,1.012 -0.4,1.178 -0.6,0.138 -4.553,0.986 -5.93,1.28 -0.272,0.059 -0.614,0.704 -0.688,1.167z"/>
 </g>
</svg>
