<?xml version="1.0" encoding="UTF-8"?>
<!DOCTYPE svg PUBLIC "-//W3C//DTD SVG 1.1//EN" "http://www.w3.org/Graphics/SVG/1.1/DTD/svg11.dtd">
<!-- Creator: CorelDRAW 2017 -->
<svg xmlns="http://www.w3.org/2000/svg" xml:space="preserve" width="1.49234in" height="1.49171in" version="1.1" style="shape-rendering:geometricPrecision; text-rendering:geometricPrecision; image-rendering:optimizeQuality; fill-rule:evenodd; clip-rule:evenodd"
viewBox="0 0 808.74 808.4"
 xmlns:xlink="http://www.w3.org/1999/xlink">
 <defs>
  <style type="text/css">
   <![CDATA[
    .str1 {stroke:#FEFEFE;stroke-width:7.53;stroke-miterlimit:2.61313}
    .str0 {stroke:#2D3055;stroke-width:1.63;stroke-miterlimit:2.61313}
    .fil0 {fill:#3A4160}
    .fil2 {fill:#2D3055}
    .fil1 {fill:#7DE7FF}
   ]]>
  </style>
 </defs>
 <g id="Layer_x0020_1">
  <metadata id="CorelCorpID_0Corel-Layer"/>
  <g id="rR">
   <g id="c4">
    <circle class="fil0" cx="112.55" cy="93.97" r="93.97"/>
    <path class="fil1 str0" d="M112.73 79.63l0 -43.21c0,-4.98 7.34,-14.62 18.17,-12.05 7.92,1.88 15.8,10.8 10.55,19.88l-21.56 37.29c0,0 -2.37,-1.91 -7.17,-1.91zm0 0l0 -43.21c0,-4.98 -7.34,-14.62 -18.17,-12.05 -7.92,1.88 -15.8,10.8 -10.55,19.88l21.56 37.29c0,0 2.37,-1.91 7.17,-1.91zm-12.47 7.2l-37.42 -21.6c-4.31,-2.49 -8.99,-13.67 -1.35,-21.76 5.58,-5.92 17.25,-8.29 22.49,0.8l21.52 37.31c0,0 -2.84,1.1 -5.24,5.26zm0 0l-37.42 -21.6c-4.31,-2.49 -16.33,-0.95 -19.52,9.71 -2.33,7.79 1.45,19.08 11.94,19.08l43.07 -0.03c0,0 -0.47,-3.01 1.93,-7.16zm-0.02 14.37l-37.48 21.5c-4.32,2.47 -16.33,0.9 -19.5,-9.77 -2.31,-7.8 1.5,-19.08 11.99,-19.05l43.07 0.15c0,0 -0.48,3.01 1.91,7.17zm0 0l-37.48 21.5c-4.32,2.47 -9.03,13.64 -1.41,21.76 5.57,5.93 17.23,8.34 22.49,-0.74l21.62 -37.25c0,0 -2.84,-1.11 -5.22,-5.27zm12.45 7.23l-0.12 43.21c-0.01,4.98 -7.38,14.6 -18.21,12 -7.91,-1.9 -15.77,-10.84 -10.5,-19.91l21.66 -37.23c0,0 2.36,1.92 7.17,1.93zm0 0l-0.12 43.21c-0.01,4.98 7.3,14.64 18.14,12.1 7.92,-1.85 15.83,-10.75 10.61,-19.85l-21.45 -37.35c0,0 -2.38,1.9 -7.18,1.89zm12.49 -7.16l37.35 21.71c4.3,2.5 8.95,13.69 1.29,21.77 -5.6,5.9 -17.28,8.24 -22.49,-0.87l-21.41 -37.38c0,0 2.84,-1.09 5.26,-5.24zm0 0l37.35 21.71c4.3,2.5 16.33,1 19.55,-9.66 2.36,-7.79 -1.39,-19.09 -11.88,-19.11l-43.07 -0.1c0,0 0.46,3.01 -1.95,7.16zm0.04 -14.4l37.48 -21.5c4.32,-2.47 16.33,-0.9 19.49,9.77 2.31,7.8 -1.5,19.08 -11.99,19.04l-43.07 -0.15c0,0 0.48,-3 -1.91,-7.17zm0 0l37.48 -21.5c4.32,-2.47 9.03,-13.64 1.41,-21.76 -5.57,-5.93 -17.23,-8.34 -22.49,0.73l-21.62 37.25c0,0 2.84,1.11 5.22,5.27z"/>
   </g>
   <path class="fil2" d="M538.44 770.17c-7.8,-30.22 -32.09,-27.78 -44.75,-27.03 2.79,6.05 -1.99,4.86 4.89,13.51 -0.28,0.67 -16.61,2.48 -15.48,12.26 -5.68,2.26 -21.7,20.78 0.84,28.95 -3.21,-6.77 -3.18,-10.94 4.57,-11.52 5.12,-0.39 10.27,4.43 15.9,-1.2 1.3,-1.3 -0.89,4.94 2.59,8.43 6.15,6.15 16.43,2.4 15.01,-0.55 0.09,-0.14 -8.31,-6.67 -6.14,-13.94 1.7,-5.68 12.23,-13.28 22.57,-8.92zm-160.3 -160.3c30.22,7.8 27.78,32.09 27.03,44.74 -6.05,-2.79 -4.86,1.99 -13.51,-4.89 -0.67,0.28 -2.48,16.61 -12.27,15.48 -2.26,5.68 -20.78,21.7 -28.95,-0.84 6.77,3.21 10.94,3.18 11.52,-4.57 0.39,-5.12 -4.43,-10.27 1.2,-15.9 1.3,-1.3 -4.94,0.89 -8.43,-2.59 -6.15,-6.15 -2.4,-16.43 0.55,-15 0.14,-0.09 6.67,8.31 13.94,6.14 5.68,-1.7 13.28,-12.23 8.92,-22.57z"/>
   <path class="fil2" d="M594.18 639.93c9.94,8.41 18.13,14.68 21.36,26.63 2.85,10.53 -1.19,24.5 -13.09,26.9 8.78,-10.18 -11.63,-26.87 -20.35,-12.33 -14.31,23.85 26.06,43.79 42.45,14.34 7.64,-13.72 5.71,-35.39 -30.38,-55.54zm-85.8 -85.8c-8.41,-9.94 -14.68,-18.13 -26.63,-21.37 -10.53,-2.85 -24.5,1.19 -26.9,13.09 10.18,-8.79 26.87,11.63 12.33,20.35 -23.85,14.31 -43.79,-26.06 -14.34,-42.45 13.72,-7.64 35.39,-5.71 55.54,30.38z"/>
   <path class="fil2" d="M481.04 667.27c31.82,-19.92 65.54,-23.57 75.24,-40.98 7.12,-12.78 8.21,-27.05 7.79,-42.04 -14.99,-0.42 -29.26,0.66 -42.04,7.79 -17.41,9.7 -21.06,43.42 -40.99,75.24z"/>
   <path class="fil2" d="M462.24 613.94c-1.37,-0.5 -2.69,-1.25 -3.9,-2.3 -20.44,-17.69 5.48,-44.98 24.66,-27.69 23.44,21.13 -7.25,87.88 -19.92,101.38 13.51,-12.67 80.25,-43.36 101.38,-19.92 17.3,19.18 -10,45.1 -27.69,24.67 -1.07,-1.24 -1.84,-2.59 -2.34,-4 -18.63,-2.37 -97.56,30.1 -107.9,35.38 5.86,-9.49 38.01,-88.39 35.69,-107.52zm59.78 -21.91c-17.41,9.7 -21.06,43.42 -40.99,75.24 31.82,-19.92 65.54,-23.57 75.24,-40.98 0.47,-0.84 0.92,-1.7 1.34,-2.56 1.78,-3.63 3.1,-7.37 4.08,-11.21 2.28,-8.97 2.65,-18.47 2.37,-28.27 -9.8,-0.28 -19.3,0.09 -28.27,2.37 -3.84,0.98 -7.58,2.3 -11.22,4.08 -0.86,0.42 -1.71,0.86 -2.56,1.34zm-93.59 139.41c-1.62,-2.27 -3.23,-4.35 -5.83,-5.49 -1.12,-2.61 -3.27,-4.28 -5.54,-5.92 -4.5,-9.63 -20.73,-16 -34.01,-12.1 -0.54,3.35 1.82,7.59 2.45,8.65 -2.08,0.76 -3.07,2.6 -1.91,5.2 -10.16,-5.79 -18.19,8.3 -3.69,13.21 -1.02,2.13 0.85,7.59 10.83,6.83 0.22,-0.25 0.45,-0.49 0.68,-0.74 -7.99,8.58 -9.33,18.41 -8.58,24.38 5.79,0.75 15.24,-0.44 23.68,-7.76 0,-0.01 0,-0.02 0,-0.02 -0.8,9.97 4.65,11.86 6.78,10.85 4.84,14.52 18.97,6.55 13.23,-3.63 2.59,1.17 4.43,0.19 5.2,-1.89 1.06,0.64 5.29,3.01 8.64,2.49 3.97,-13.27 -2.33,-29.53 -11.94,-34.07zm-14.54 -16.23c7.26,-9.54 9.79,-29.27 3.16,-37.33 -6.16,-7.48 -15.14,-6.22 -16.85,0.64 -1.87,7.5 4.47,13.09 11.82,9.4 1.48,1.55 2.62,6.65 -1.59,11.97 -5.19,6.57 0.73,13.39 3.46,15.32zm18.75 19.25c9.54,-7.26 29.27,-9.79 37.33,-3.16 7.48,6.16 6.22,15.14 -0.64,16.85 -7.5,1.87 -13.09,-4.47 -9.4,-11.82 -1.56,-1.48 -6.65,-2.62 -11.97,1.59 -6.57,5.19 -13.39,-0.73 -15.31,-3.46z"/>
   <path class="fil2" d="M441.99 706.43c33.84,-44.38 40.93,-94.84 40.35,-105.18 -5.55,15.32 -14.59,13.9 -20.07,12.7 2.91,18.29 -29.82,97.94 -35.72,107.51 10.39,-5.31 89.64,-38.09 107.72,-35.33 -1,-4.98 -2.16,-13.98 12.45,-20.09 -10.34,-0.58 -60.34,6.55 -104.72,40.39zm206.56 15.98c3.61,6.59 3.66,12.74 -3.31,16.7l0.01 0.01c6.02,-3.09 6.96,-6.17 3.29,-16.71zm-40.7 26.84c0.67,-5.82 4.33,-11.92 9.96,-16.26 -0.68,0.47 -5.74,3.26 -10.89,4.41 0.86,4.07 -1.08,8.64 -3.41,11.39 1.34,0.54 2.81,0.65 4.33,0.45zm-6.56 -18.39c2.08,-4.5 4.94,-8.91 12.55,-12.07 -6.49,-0.83 -11.75,-2.08 -10.87,-7.78 1,-6.5 20.61,-14.79 23.87,-30.69 7.5,-36.56 -92.4,-64.62 -93.45,-64 123.25,-26.14 133.82,84.69 155.95,99.9 11.13,7.65 10.09,2.2 21.55,6.51 3.99,1.5 8.97,6.17 3.86,10.41 0.07,0.07 13.28,3.3 2,12.11 -15.95,12.45 -20.35,-3.57 -23.43,-4.85 8.52,23.42 37.91,5.59 41.23,27.54 1.74,11.51 19.65,-0.53 9.85,-9.58 2.16,-4.5 21.76,10.91 3.02,29.65 -14.81,14.81 -34.29,-4.74 -38.19,-10.61 4.8,21.29 -5.52,17.18 -17.35,4.78 -6.31,-6.61 -0.68,-15.96 -7.5,-30.01 1.27,5.54 5.78,14.11 0.83,23.42 -5.17,9.72 -6.11,10.17 -12.51,0.04 -3.77,8.53 -8.72,14.56 -12.97,14.66 -10.12,0.25 -8.63,-18.87 -8.95,-24.03 -6.64,-0.05 -9.14,-2.84 -9.68,-6.81 -3.55,2.18 -10.22,8.06 -6.2,13.49 0.64,-2.57 7.29,-5.03 10.63,-1.69 5.81,5.81 -0.95,13.37 -8.66,14.04 -5.58,0.48 -12.03,-4.17 -12.5,-10.4 -3.31,4.28 -21.76,13.19 -27.31,12.03 3.1,-6.78 2.11,-13.23 -1.32,-18.92 6.38,1.6 13.42,-2.26 18.84,-4.9 -3.02,-1.59 -4.97,-4.61 -5.42,-4.9 -14.36,5.18 -23.27,1.82 -29.64,-9.22 -4.01,-6.95 7.11,-22.3 18.96,-19.13 1.06,0.28 2.01,0.63 2.86,1.02zm47.46 -9.09c6.52,0.82 6.42,-8.81 5.56,-18.04 0.7,-3.44 1,-8.43 1.06,-11.16 0.23,-10.22 -11.16,-18.04 -8.37,-5.12 1.35,6.22 5.32,9.95 7.15,14.44 1.72,4.21 1.59,21.09 -5.41,19.87zm-222.85 -222.01c-6.59,-3.62 -12.74,-3.66 -16.7,3.31l-0.01 -0.02c3.09,-6.02 6.17,-6.96 16.72,-3.29zm-26.84 40.7c5.82,-0.67 11.92,-4.33 16.26,-9.96 -0.47,0.68 -3.26,5.75 -4.41,10.89 -4.07,-0.86 -8.64,1.08 -11.39,3.41 -0.54,-1.35 -0.65,-2.81 -0.45,-4.34zm18.38 6.56c4.5,-2.08 8.91,-4.94 12.07,-12.55 0.82,6.49 2.08,11.75 7.78,10.87 6.5,-1 14.78,-20.6 30.69,-23.87 36.56,-7.5 64.62,92.4 64,93.45 26.14,-123.25 -84.69,-133.82 -99.91,-155.95 -7.65,-11.13 -2.2,-10.08 -6.51,-21.54 -1.5,-3.99 -6.17,-8.97 -10.41,-3.86 -0.07,-0.07 -3.3,-13.28 -12.11,-2 -12.45,15.95 3.57,20.35 4.84,23.43 -23.42,-8.52 -5.59,-37.91 -27.54,-41.23 -11.51,-1.74 0.53,-19.65 9.58,-9.85 4.5,-2.16 -10.91,-21.76 -29.65,-3.02 -14.81,14.81 4.75,34.29 10.61,38.19 -21.29,-4.8 -17.18,5.52 -4.78,17.35 6.61,6.31 15.96,0.68 30.01,7.5 -5.54,-1.27 -14.11,-5.78 -23.42,-0.83 -9.72,5.17 -10.17,6.11 -0.04,12.51 -8.53,3.77 -14.56,8.72 -14.66,12.97 -0.24,10.12 18.87,8.63 24.04,8.95 0.05,6.64 2.84,9.14 6.81,9.68 -2.18,3.55 -8.06,10.22 -13.49,6.2 2.57,-0.64 5.03,-7.29 1.69,-10.63 -5.81,-5.81 -13.37,0.95 -14.04,8.66 -0.48,5.58 4.17,12.03 10.4,12.5 -4.28,3.31 -13.19,21.76 -12.04,27.31 6.78,-3.1 13.23,-2.11 18.92,1.32 -1.6,-6.38 2.26,-13.42 4.9,-18.84 1.59,3.02 4.61,4.97 4.9,5.42 -5.18,14.36 -1.82,23.27 9.22,29.64 6.94,4.01 22.3,-7.11 19.13,-18.96 -0.28,-1.06 -0.63,-2.01 -1.02,-2.86zm9.09 -47.46c-0.82,-6.52 8.81,-6.42 18.04,-5.56 3.44,-0.7 8.43,-1 11.16,-1.06 10.22,-0.23 18.04,11.16 5.12,8.37 -6.22,-1.35 -9.95,-5.32 -14.44,-7.15 -4.22,-1.72 -21.09,-1.59 -19.87,5.41zm152.53 264.07c3.7,6.43 6.92,14.7 0.79,26.52 -17.45,5.89 -21.96,2.2 -38.01,-3.8 -8.26,-3.09 -28.63,5.82 -23.25,-9.34 4.3,-12.11 22.38,-4.37 30.06,-0.09 -18.84,-7.83 -28.56,-28.27 -31.47,-46.41 -2.19,2.98 -12.98,7.43 -12.13,-9.08 0.33,-6.43 12.51,-10.46 18.5,-1.87 -0.63,-31.67 38.62,-45.74 58.97,-20.47 17.41,21.62 -8.71,50.28 -21.53,31.33 -6.75,-9.98 2.98,-22.51 12.23,-16.6 3.62,2.32 6.21,6.71 3.51,10.48 -5.97,8.34 -12.6,-0.38 -9.39,-4.14 -2.91,8.22 5.98,9.61 8.99,4.72 3.43,-5.58 -0.64,-9.22 -2.38,-10.56 7.4,-6.01 -11.9,-31.11 -32.27,-10.73 -4.45,4.45 -10.63,17.75 -10.25,23.97 0.01,0.13 1.28,-10.43 7.3,-14.33 5.2,-3.37 10.14,-1.82 13.84,2.98 1.95,2.54 2.64,8.89 1.24,11.15 -2.36,3.81 0.78,1.87 2.2,5.04 2.81,6.27 -6.04,8.29 -4.74,20.79 1.38,13.2 13.01,15.83 23.54,21.22 -24.68,-10.83 -20.37,-35.3 -8.81,-33.67 2.85,0.4 5.03,5.28 4.45,11.7 -0.31,3.42 5.67,11.06 8.64,11.17zm7.31 -2.03c-6.82,1.11 0.55,12.72 -0.08,17.41 -0.79,5.95 -3.6,11.29 -3.07,12.71 1.41,3.83 5.73,2.66 8.79,-0.12 3.27,-2.98 4.61,-9.18 4.39,-13.44 -0.12,-2.38 -1.79,-8.51 -4.33,-12.56 -1.69,-2.7 -3.99,-4.27 -5.7,-4zm-201.7 -192.36c-6.43,-3.7 -14.69,-6.92 -26.52,-0.79 -5.89,17.45 -2.21,21.96 3.8,38.01 3.09,8.26 -5.82,28.63 9.34,23.25 12.11,-4.3 4.36,-22.38 0.09,-30.06 7.83,18.84 28.27,28.56 46.41,31.47 -2.98,2.19 -7.43,12.98 9.08,12.13 6.43,-0.33 10.46,-12.51 1.87,-18.5 31.67,0.63 45.74,-38.62 20.47,-58.97 -21.62,-17.41 -50.28,8.71 -31.33,21.53 9.98,6.75 22.51,-2.98 16.6,-12.23 -2.32,-3.62 -6.71,-6.21 -10.48,-3.51 -8.33,5.97 0.39,12.6 4.14,9.39 -8.22,2.91 -9.61,-5.98 -4.72,-8.99 5.58,-3.43 9.22,0.64 10.56,2.38 6.01,-7.4 31.11,11.9 10.73,32.27 -4.45,4.45 -17.75,10.63 -23.97,10.25 -0.13,-0.01 10.43,-1.28 14.33,-7.3 3.37,-5.2 1.82,-10.14 -2.98,-13.84 -2.54,-1.95 -8.89,-2.64 -11.15,-1.24 -3.81,2.36 -1.87,-0.78 -5.04,-2.2 -6.26,-2.8 -8.29,6.04 -20.79,4.74 -13.2,-1.38 -15.83,-13.01 -21.22,-23.54 10.83,24.68 35.3,20.37 33.67,8.81 -0.4,-2.85 -5.28,-5.03 -11.7,-4.45 -3.42,0.31 -11.06,-5.67 -11.17,-8.64zm2.04 -7.31c-1.11,6.82 -12.72,-0.55 -17.41,0.08 -5.95,0.79 -11.29,3.6 -12.71,3.07 -3.83,-1.41 -2.66,-5.73 0.12,-8.79 2.98,-3.27 9.18,-4.61 13.44,-4.39 2.38,0.12 8.51,1.79 12.56,4.33 2.7,1.69 4.27,3.99 4,5.7z"/>
   <path id="کادر" class="fil2 str1" d="M701.66 624.48c137.26,-142.37 127.89,-338.44 30.01,-470.19 -75.35,-101.41 -207.6,-149.19 -331.92,-149.02 -51.93,0.07 -138.07,0.01 -181.34,0 -0.02,1.18 0.08,685.51 0.07,750.99 -22.78,0 -142.83,0.12 -165.61,0.12 -0.07,-102.33 0.07,-394 0,-496.33 122.66,0.11 259.67,0.02 382.33,0.03 66.54,-0.32 114.41,44.97 123.11,95.34 5.37,31.09 -0.92,70.76 -33.07,104.49 6.23,-1.87 19.87,-3.88 25.87,-3.87 -26.8,0.13 -48.81,8.75 -52.52,40.49 -3.27,27.96 19.56,57.76 53.96,45.3 35.06,-12.7 26.12,-48.65 8.53,-49.65 -16.57,-0.95 -31.14,19.92 -14.29,29.11 -23,0 -18.98,-33.19 7.77,-35.18 41.14,-3.06 119.31,31.48 155.45,-20.97 18.48,-26.81 1.75,-61.54 -22.47,-67.42 -54.89,-13.33 -65.39,34.01 -52.41,70.08 7.96,1.37 19.15,1.2 30.03,-3.7 -7.96,-25.78 -7.27,-43.03 11.18,-38.24 26.57,6.9 2.63,39.75 -26.78,42.54 -14.76,1.4 -42.34,-6.22 -69.58,-10.04 -1.23,-0.17 -2.46,-0.34 -3.69,-0.5l3.08 0.36c34.46,-54.93 32.07,-123.17 -0.85,-173.81 -32.81,-52.09 -90.92,-75.51 -142.37,-73.97 -48.92,-0.17 -431.36,-0.44 -432.39,-0.41 -0.11,119.65 0.65,474.95 0.54,594.59 34.81,-0.11 228.34,0.11 263.16,0 0,-247.58 0.43,-502.39 0.43,-749.97 49.92,-0.08 92.6,-0.13 153.34,-0.24 164.47,1.08 302.98,98.07 334.86,263.38 17.34,89.93 -13.06,180.48 -57.78,243.03 -5.54,-23.55 -16.09,-48.42 -23.95,-70.12 -12.26,3.2 -24.18,3.66 -29.91,4.08 15.54,46.76 28.19,93.38 28.7,100.47 1.94,26.76 -30.56,35.36 -33.76,12.59 11.44,15.41 30.08,-1.92 26.84,-18.2 -3.44,-17.28 -40.28,-21.13 -47.98,15.36 -7.56,35.8 25.06,54.03 52.36,47.14 17.36,-4.38 26.81,-14.21 31.03,-27.64zm2.66 -25.78c0.53,9.05 0.03,18.13 -2.66,25.78 2.38,-7.56 3.11,-16.27 2.66,-25.78z"/>
  </g>
 </g>
</svg>
