<?xml version="1.0" encoding="UTF-8"?>
<!DOCTYPE svg PUBLIC "-//W3C//DTD SVG 1.1//EN" "http://www.w3.org/Graphics/SVG/1.1/DTD/svg11.dtd">
<!-- Creator: CorelDRAW 2017 -->
<svg xmlns="http://www.w3.org/2000/svg" xml:space="preserve" width="1574px" height="75px" version="1.1" style="shape-rendering:geometricPrecision; text-rendering:geometricPrecision; image-rendering:optimizeQuality; fill-rule:evenodd; clip-rule:evenodd"
viewBox="0 0 1289.648 61.407"
 xmlns:xlink="http://www.w3.org/1999/xlink">
 <defs>
  <style type="text/css">
   <![CDATA[
    .fil0 {fill:#D7941D;fill-rule:nonzero}
   ]]>
  </style>
 </defs>
 <g id="Layer_x0020_1">
  <metadata id="CorelCorpID_0Corel-Layer"/>
  <path class="fil0" d="M1227.939 0l11.533 0.016 0 60.302 -11.474 0 0.008 -45.283c-3.921,7.006 -13.513,10.59 -18.197,11.417 4.611,-2.619 4.742,-11.889 7.099,-16.829 1.322,-2.769 3.923,-4.218 6.999,-2.275 3.354,2.118 0.743,6.13 -1.307,6.213 -2.05,0.084 -2.973,-1.25 -2.724,-2.297 0.25,-1.047 1.3,-1.385 2.122,-0.994 0.822,0.389 0.462,1.386 -0.009,1.343 -0.471,-0.044 -0.588,-0.189 -0.588,-0.189 0.331,0.755 1.261,0.732 1.608,0.255 0.251,-0.344 0.335,-1.505 -0.466,-2.183 -0.948,-0.803 -2.775,-0.259 -3.383,1.035 -0.608,1.294 -0.183,3.783 2.197,4.358 6.119,1.478 7.337,-7.963 6.582,-14.889zm42.237 0.016c5.807,0 10.343,2.08 13.624,6.24 3.894,4.913 5.848,13.079 5.848,24.47 0,11.376 -1.968,19.556 -5.89,24.525 -3.253,4.104 -7.775,6.156 -13.582,6.156 -5.835,0 -10.539,-2.248 -14.112,-6.742 -3.574,-4.495 -5.361,-12.521 -5.361,-24.051 0,-11.321 1.969,-19.473 5.891,-24.442 3.252,-4.104 7.775,-6.156 13.582,-6.156zm0 9.548c-1.368,0 -2.596,0.447 -3.657,1.34 -1.075,0.88 -1.913,2.471 -2.499,4.774 -0.781,2.973 -1.173,7.998 -1.173,15.048 0,7.063 0.35,11.906 1.047,14.544 0.698,2.639 1.578,4.398 2.638,5.277 1.061,0.88 2.276,1.312 3.644,1.312 1.368,0 2.596,-0.447 3.671,-1.34 1.061,-0.879 1.898,-2.471 2.485,-4.774 0.782,-2.945 1.172,-7.956 1.172,-15.019 0,-7.05 -0.349,-11.894 -1.047,-14.532 -0.698,-2.638 -1.577,-4.41 -2.638,-5.29 -1.061,-0.893 -2.275,-1.34 -3.643,-1.34zm-445.316 -9.564l11.533 0.016 0 60.302 -11.474 0 0.009 -45.283c-3.921,7.006 -13.513,10.59 -18.198,11.417 4.612,-2.619 4.742,-11.889 7.099,-16.829 1.322,-2.769 3.923,-4.218 7,-2.275 3.353,2.118 0.742,6.13 -1.308,6.213 -2.05,0.084 -2.973,-1.25 -2.723,-2.297 0.249,-1.047 1.299,-1.385 2.121,-0.994 0.822,0.389 0.462,1.386 -0.009,1.343 -0.47,-0.044 -0.588,-0.189 -0.588,-0.189 0.332,0.755 1.261,0.732 1.608,0.255 0.251,-0.344 0.335,-1.505 -0.466,-2.183 -0.947,-0.803 -2.775,-0.259 -3.383,1.035 -0.608,1.294 -0.182,3.783 2.198,4.358 6.118,1.478 7.336,-7.963 6.581,-14.889zm42.237 0.016c5.807,0 10.344,2.08 13.624,6.24 3.894,4.913 5.849,13.079 5.849,24.47 0,11.376 -1.968,19.556 -5.891,24.525 -3.252,4.104 -7.775,6.156 -13.582,6.156 -5.834,0 -10.538,-2.248 -14.112,-6.742 -3.573,-4.495 -5.36,-12.521 -5.36,-24.051 0,-11.321 1.968,-19.473 5.89,-24.442 3.253,-4.104 7.775,-6.156 13.582,-6.156zm0 9.548c-1.368,0 -2.596,0.447 -3.657,1.34 -1.075,0.88 -1.912,2.471 -2.499,4.774 -0.781,2.973 -1.172,7.998 -1.172,15.048 0,7.063 0.349,11.906 1.047,14.544 0.698,2.639 1.577,4.398 2.638,5.277 1.061,0.88 2.275,1.312 3.643,1.312 1.368,0 2.597,-0.447 3.671,-1.34 1.061,-0.879 1.899,-2.471 2.485,-4.774 0.782,-2.945 1.173,-7.956 1.173,-15.019 0,-7.05 -0.349,-11.894 -1.047,-14.532 -0.698,-2.638 -1.578,-4.41 -2.639,-5.29 -1.06,-0.893 -2.275,-1.34 -3.643,-1.34zm-445.245 -9.564l11.533 0.016 0 60.302 -11.474 0 0.009 -45.283c-3.921,7.006 -13.513,10.59 -18.198,11.417 4.612,-2.619 4.742,-11.889 7.099,-16.829 1.322,-2.769 3.923,-4.218 7,-2.275 3.353,2.118 0.743,6.13 -1.308,6.213 -2.05,0.084 -2.973,-1.25 -2.723,-2.297 0.249,-1.047 1.299,-1.385 2.121,-0.994 0.822,0.389 0.462,1.386 -0.009,1.343 -0.47,-0.044 -0.588,-0.189 -0.588,-0.189 0.332,0.755 1.261,0.732 1.608,0.255 0.251,-0.344 0.335,-1.505 -0.465,-2.183 -0.948,-0.803 -2.776,-0.259 -3.384,1.035 -0.608,1.294 -0.182,3.783 2.198,4.358 6.118,1.478 7.337,-7.963 6.581,-14.889zm42.237 0.016c5.807,0 10.344,2.08 13.624,6.24 3.894,4.913 5.849,13.079 5.849,24.47 0,11.376 -1.968,19.556 -5.891,24.525 -3.252,4.104 -7.775,6.156 -13.582,6.156 -5.834,0 -10.538,-2.248 -14.112,-6.742 -3.573,-4.495 -5.36,-12.521 -5.36,-24.051 0,-11.321 1.968,-19.473 5.89,-24.442 3.253,-4.104 7.775,-6.156 13.582,-6.156zm0 9.548c-1.368,0 -2.596,0.447 -3.657,1.34 -1.075,0.88 -1.912,2.471 -2.499,4.774 -0.781,2.973 -1.172,7.998 -1.172,15.048 0,7.063 0.349,11.906 1.047,14.544 0.698,2.639 1.577,4.398 2.638,5.277 1.061,0.88 2.275,1.312 3.643,1.312 1.368,0 2.597,-0.447 3.671,-1.34 1.061,-0.879 1.899,-2.471 2.485,-4.774 0.782,-2.945 1.173,-7.956 1.173,-15.019 0,-7.05 -0.349,-11.894 -1.047,-14.532 -0.698,-2.638 -1.577,-4.41 -2.639,-5.29 -1.06,-0.893 -2.275,-1.34 -3.643,-1.34zm-445.959 -9.564l11.533 0.016 0 60.302 -11.474 0 0.008 -45.283c-3.921,7.006 -13.513,10.59 -18.197,11.417 4.611,-2.619 4.742,-11.889 7.099,-16.829 1.322,-2.769 3.923,-4.218 6.999,-2.275 3.354,2.118 0.743,6.13 -1.307,6.213 -2.05,0.084 -2.973,-1.25 -2.723,-2.297 0.249,-1.047 1.299,-1.385 2.121,-0.994 0.822,0.389 0.462,1.386 -0.009,1.343 -0.471,-0.044 -0.588,-0.189 -0.588,-0.189 0.332,0.755 1.261,0.732 1.608,0.255 0.251,-0.344 0.335,-1.505 -0.466,-2.183 -2.728,-2.312 -5.955,4.242 -1.186,5.393 6.119,1.478 7.337,-7.963 6.582,-14.889zm42.237 0.016c5.807,0 10.344,2.08 13.624,6.24 3.894,4.913 5.849,13.079 5.849,24.47 0,11.376 -1.969,19.556 -5.891,24.525 -3.253,4.104 -7.775,6.156 -13.582,6.156 -5.835,0 -10.539,-2.248 -14.112,-6.742 -3.574,-4.495 -2.076,-12.999 -5.361,-24.051 -2.798,-9.417 1.588,-19.214 5.891,-24.442 3.252,-4.104 7.775,-6.156 13.582,-6.156zm0 9.548c-1.368,0 -2.596,0.447 -3.657,1.34 -1.075,0.88 -1.912,2.471 -2.499,4.774 -0.781,2.973 -1.172,7.998 -1.172,15.048 0,7.063 0.349,11.906 1.047,14.544 0.697,2.639 1.577,4.398 2.638,5.277 1.061,0.88 2.275,1.312 3.643,1.312 1.368,0 2.597,-0.447 3.671,-1.34 1.061,-0.879 1.899,-2.471 2.485,-4.774 0.782,-2.945 1.172,-7.956 1.172,-15.019 0,-7.05 -0.349,-11.894 -1.046,-14.532 -0.699,-2.638 -1.578,-4.41 -2.639,-5.29 -1.061,-0.893 -2.275,-1.34 -3.643,-1.34z"/>
 </g>
</svg>
