<?xml version="1.0" encoding="UTF-8"?>
<!DOCTYPE svg PUBLIC "-//W3C//DTD SVG 1.1//EN" "http://www.w3.org/Graphics/SVG/1.1/DTD/svg11.dtd">
<!-- Creator: CorelDRAW 2017 -->
<svg xmlns="http://www.w3.org/2000/svg" xml:space="preserve" width="0.337232in" height="0.357713in" version="1.1" style="shape-rendering:geometricPrecision; text-rendering:geometricPrecision; image-rendering:optimizeQuality; fill-rule:evenodd; clip-rule:evenodd"
viewBox="0 0 5.61 5.95"
 xmlns:xlink="http://www.w3.org/1999/xlink">
 <defs>
  <style type="text/css">
   <![CDATA[
    .fil0 {fill:#D7941D}
   ]]>
  </style>
 </defs>
 <g id="Layer_x0020_1">
  <metadata id="CorelCorpID_0Corel-Layer"/>
  <path class="fil0" d="M2.81 0.61c0.42,0 0.76,0.33 0.76,0.75 0,0.41 -0.34,0.75 -0.76,0.75 -0.42,0 -0.76,-0.34 -0.76,-0.75 0,-0.41 0.34,-0.75 0.76,-0.75zm0 -0.61c0.76,0 1.38,0.61 1.38,1.36 0,0.75 -0.62,1.36 -1.38,1.36 -0.76,0 -1.38,-0.61 -1.38,-1.36 0,-0.75 0.62,-1.36 1.38,-1.36zm0 5.3l-1.95 0 0 -0.74c0,0 0.67,-0.88 1.95,-0.88 1.27,0 1.95,0.88 1.95,0.88l0 0.74 -1.95 0zm0 0.65l-2.81 0 0 -1.48c0,0 0.74,-1.54 2.81,-1.54 2.07,0 2.81,1.54 2.81,1.54l0 1.48 -2.81 0z"/>
 </g>
</svg>
